<svg viewBox="0 0 1388 1312" width="1388" height="1312" xmlns="http://www.w3.org/2000/svg" font-family="Segoe UI, system-ui, sans-serif" role="img">
<defs>
<marker id="arrow" markerWidth="9" markerHeight="9" refX="7" refY="3" orient="auto"><path d="M0,0 L7,3 L0,6 Z" fill="#94a3b8"/></marker>
</defs>
<style>
.t{font-size:13px;font-weight:600;fill:#e2e8f0}
.s{font-size:10.5px;fill:#94a3b8}
.h{font-size:12.5px;font-weight:700;fill:#ffffff}
.h2{font-size:12.5px;font-weight:700}
.h3{font-size:9px;font-weight:600}
.g{font-size:10.5px;font-weight:600}
.band{fill:#141d31}
.bt{fill:#ffffff;font-size:15px;font-weight:700}
.ol{fill:#e2e8f0;font-size:11.5px}
.lt{font-size:12.5px;font-weight:700;fill:#e2e8f0}
.ls{font-size:10.5px;fill:#94a3b8}
.lm{font-family:ui-monospace,Consolas,Menlo,monospace;font-size:12px;font-weight:700}
.bm{font-family:ui-monospace,Consolas,Menlo,monospace;font-size:10.5px;font-weight:700}
.st{font-size:14px;font-weight:700}
.ss{font-size:10.5px;font-weight:600}
</style>
<text x="24" y="34" class="lt">The universal cycle contract</text>
<rect x="24" y="54" width="1340" height="128" rx="10" class="band"/>
<text x="42" y="80" class="bt">pdca · orchestrator — per-phase inputs · normal: primary · autonomous: pdca-orchestrator (cheap tier only)</text>
<text x="42" y="106" class="ol">← PLAN ← “start” · “replan from DO / CHECK” · “r+1 from ESCALATE” · “cycle N+1 from ACT”</text>
<text x="42" y="124" class="ol">← DO ← “go from PLAN” · “defect from CHECK” · “r not exhausted from ESCALATE”</text>
<text x="42" y="142" class="ol">← CHECK ← “units done from DO”</text>
<text x="42" y="160" class="ol">← ESCALATE ← “ambiguity” · “repeat” · “3rd CHECK(r) failure” · “trade-off” · “risky result before ACT” · “low PLAN confidence after scout”</text>
<text x="694.0" y="106" class="ol">← ACT ← “all criteria met from CHECK”</text>
<text x="694.0" y="124" class="ol">← STOP ← “no doable PLAN r+1” · “unsolvable constraint” · “refused required approval”</text>
<text x="694.0" y="142" class="ol">← EXIT ← “ACT closed”</text>
<rect x="108.0" y="226" width="212" height="40" rx="8" fill="#2563eb"/><text x="214.0" y="251.0" class="h" fill="#ffffff" text-anchor="middle">P · PLAN</text>
<polyline points="214.0,266 214.0,282" fill="none" stroke="#94a3b8" marker-end="url(#arrow)"/>
<rect x="108.0" y="282" width="212" height="50" rx="8" fill="#223046" stroke="#3b4a63" stroke-width="1"/>
<rect x="109.0" y="289" width="3" height="36" rx="1.5" fill="#0d9488"/>
<rect x="254.0" y="309" width="58" height="17" rx="6" fill="#0d9488"/>
<text x="283.0" y="321.0" class="bm" fill="#cbd5e1" text-anchor="middle">cheap</text>
<text x="122.0" y="305" class="t">Gather</text>
<text x="122.0" y="324" class="s">scout: facts · file:line</text>
<rect x="108.0" y="344" width="212" height="50" rx="8" fill="#223046" stroke="#3b4a63" stroke-width="1"/>
<rect x="109.0" y="351" width="3" height="36" rx="1.5" fill="#4f46e5"/>
<rect x="254.0" y="371" width="58" height="17" rx="6" fill="#4f46e5"/>
<text x="283.0" y="383.0" class="bm" fill="#cbd5e1" text-anchor="middle">medium</text>
<text x="122.0" y="367" class="t">Goal · result</text>
<text x="122.0" y="386" class="s">what and why</text>
<rect x="108.0" y="406" width="212" height="50" rx="8" fill="#223046" stroke="#3b4a63" stroke-width="1"/>
<rect x="109.0" y="413" width="3" height="36" rx="1.5" fill="#4f46e5"/>
<rect x="254.0" y="433" width="58" height="17" rx="6" fill="#4f46e5"/>
<text x="283.0" y="445.0" class="bm" fill="#cbd5e1" text-anchor="middle">medium</text>
<text x="122.0" y="429" class="t">Constraints · assumptions</text>
<text x="122.0" y="448" class="s">task boundaries</text>
<rect x="108.0" y="468" width="212" height="50" rx="8" fill="#223046" stroke="#3b4a63" stroke-width="1"/>
<rect x="109.0" y="475" width="3" height="36" rx="1.5" fill="#4f46e5"/>
<rect x="254.0" y="495" width="58" height="17" rx="6" fill="#4f46e5"/>
<text x="283.0" y="507.0" class="bm" fill="#cbd5e1" text-anchor="middle">medium</text>
<text x="122.0" y="491" class="t">Acceptance criteria</text>
<text x="122.0" y="510" class="s">each + a check</text>
<rect x="108.0" y="530" width="212" height="50" rx="8" fill="#223046" stroke="#3b4a63" stroke-width="1"/>
<rect x="109.0" y="537" width="3" height="36" rx="1.5" fill="#4f46e5"/>
<rect x="254.0" y="557" width="58" height="17" rx="6" fill="#4f46e5"/>
<text x="283.0" y="569.0" class="bm" fill="#cbd5e1" text-anchor="middle">medium</text>
<text x="122.0" y="553" class="t">Decomposition</text>
<text x="122.0" y="572" class="s">units · dependencies</text>
<rect x="108.0" y="592" width="212" height="50" rx="8" fill="#223046" stroke="#3b4a63" stroke-width="1"/>
<rect x="109.0" y="599" width="3" height="36" rx="1.5" fill="#4f46e5"/>
<rect x="254.0" y="619" width="58" height="17" rx="6" fill="#4f46e5"/>
<text x="283.0" y="631.0" class="bm" fill="#cbd5e1" text-anchor="middle">medium</text>
<text x="122.0" y="615" class="t">Means · access</text>
<text x="122.0" y="634" class="s">with what, where</text>
<rect x="108.0" y="654" width="212" height="50" rx="8" fill="#223046" stroke="#3b4a63" stroke-width="1"/>
<rect x="109.0" y="661" width="3" height="36" rx="1.5" fill="#4f46e5"/>
<rect x="254.0" y="681" width="58" height="17" rx="6" fill="#4f46e5"/>
<text x="283.0" y="693.0" class="bm" fill="#cbd5e1" text-anchor="middle">medium</text>
<text x="122.0" y="677" class="t">Risks · stop rules</text>
<text x="122.0" y="696" class="s">when to stop</text>
<polyline points="214.0,332 214.0,344" fill="none" stroke="#64748b" marker-end="url(#arrow)"/>
<polyline points="214.0,394 214.0,406" fill="none" stroke="#64748b" marker-end="url(#arrow)"/>
<polyline points="214.0,456 214.0,468" fill="none" stroke="#64748b" marker-end="url(#arrow)"/>
<polyline points="214.0,518 214.0,530" fill="none" stroke="#64748b" marker-end="url(#arrow)"/>
<polyline points="214.0,580 214.0,592" fill="none" stroke="#64748b" marker-end="url(#arrow)"/>
<polyline points="214.0,642 214.0,654" fill="none" stroke="#64748b" marker-end="url(#arrow)"/>
<rect x="102.0" y="274" width="224" height="438" rx="12" fill="none" stroke="#2563eb" stroke-opacity="0.6" stroke-width="1.6"/>
<rect x="348.0" y="226" width="212" height="40" rx="8" fill="#7c3aed"/><text x="454.0" y="251.0" class="h" fill="#ffffff" text-anchor="middle">D · DO</text>
<polyline points="454.0,266 454.0,282" fill="none" stroke="#94a3b8" marker-end="url(#arrow)"/>
<rect x="348.0" y="282" width="212" height="50" rx="8" fill="#223046" stroke="#3b4a63" stroke-width="1"/>
<rect x="349.0" y="289" width="3" height="36" rx="1.5" fill="#0d9488"/>
<rect x="494.0" y="309" width="58" height="17" rx="6" fill="#0d9488"/>
<text x="523.0" y="321.0" class="bm" fill="#cbd5e1" text-anchor="middle">cheap</text>
<text x="362.0" y="305" class="t">Execute units</text>
<text x="362.0" y="324" class="s">per the accepted plan</text>
<rect x="348.0" y="344" width="212" height="50" rx="8" fill="#223046" stroke="#3b4a63" stroke-width="1"/>
<rect x="349.0" y="351" width="3" height="36" rx="1.5" fill="#0d9488"/>
<rect x="494.0" y="371" width="58" height="17" rx="6" fill="#0d9488"/>
<text x="523.0" y="383.0" class="bm" fill="#cbd5e1" text-anchor="middle">cheap</text>
<text x="362.0" y="367" class="t">Evidence</text>
<text x="362.0" y="386" class="s">logs · artifacts</text>
<rect x="348.0" y="406" width="212" height="50" rx="8" fill="#223046" stroke="#3b4a63" stroke-width="1"/>
<rect x="349.0" y="413" width="3" height="36" rx="1.5" fill="#0d9488"/>
<rect x="494.0" y="433" width="58" height="17" rx="6" fill="#0d9488"/>
<text x="523.0" y="445.0" class="bm" fill="#cbd5e1" text-anchor="middle">cheap</text>
<text x="362.0" y="429" class="t">Blockers</text>
<text x="362.0" y="448" class="s">recorded explicitly</text>
<rect x="348.0" y="468" width="212" height="50" rx="8" fill="#223046" stroke="#3b4a63" stroke-width="1"/>
<rect x="349.0" y="475" width="3" height="36" rx="1.5" fill="#0d9488"/>
<rect x="494.0" y="495" width="58" height="17" rx="6" fill="#0d9488"/>
<text x="523.0" y="507.0" class="bm" fill="#cbd5e1" text-anchor="middle">cheap</text>
<text x="362.0" y="491" class="t">Unfinished</text>
<text x="362.0" y="510" class="s">stays open</text>
<rect x="348.0" y="530" width="212" height="50" rx="8" fill="#223046" stroke="#3b4a63" stroke-width="1"/>
<rect x="349.0" y="537" width="3" height="36" rx="1.5" fill="#0d9488"/>
<rect x="494.0" y="557" width="58" height="17" rx="6" fill="#0d9488"/>
<text x="523.0" y="569.0" class="bm" fill="#cbd5e1" text-anchor="middle">cheap</text>
<text x="362.0" y="553" class="t">Provisional report</text>
<text x="362.0" y="572" class="s">no verdict · no STOP</text>
<polyline points="454.0,332 454.0,344" fill="none" stroke="#64748b" marker-end="url(#arrow)"/>
<polyline points="454.0,394 454.0,406" fill="none" stroke="#64748b" marker-end="url(#arrow)"/>
<polyline points="454.0,456 454.0,468" fill="none" stroke="#64748b" marker-end="url(#arrow)"/>
<polyline points="454.0,518 454.0,530" fill="none" stroke="#64748b" marker-end="url(#arrow)"/>
<rect x="342.0" y="274" width="224" height="314" rx="12" fill="none" stroke="#7c3aed" stroke-opacity="0.6" stroke-width="1.6"/>
<rect x="588.0" y="226" width="212" height="40" rx="8" fill="#d97706"/><text x="694.0" y="251.0" class="h" fill="#ffffff" text-anchor="middle">C · CHECK</text>
<polyline points="694.0,266 694.0,282" fill="none" stroke="#94a3b8" marker-end="url(#arrow)"/>
<rect x="588.0" y="282" width="212" height="50" rx="8" fill="#223046" stroke="#3b4a63" stroke-width="1"/>
<rect x="589.0" y="289" width="3" height="36" rx="1.5" fill="#4f46e5"/>
<rect x="734.0" y="309" width="58" height="17" rx="6" fill="#4f46e5"/>
<text x="763.0" y="321.0" class="bm" fill="#cbd5e1" text-anchor="middle">medium</text>
<text x="602.0" y="305" class="t">Criteria</text>
<text x="602.0" y="324" class="s">met | unmet | unverified</text>
<rect x="588.0" y="344" width="212" height="50" rx="8" fill="#223046" stroke="#3b4a63" stroke-width="1"/>
<rect x="589.0" y="351" width="3" height="36" rx="1.5" fill="#4f46e5"/>
<rect x="734.0" y="371" width="58" height="17" rx="6" fill="#4f46e5"/>
<text x="763.0" y="383.0" class="bm" fill="#cbd5e1" text-anchor="middle">medium</text>
<text x="602.0" y="367" class="t">Consistency</text>
<text x="602.0" y="386" class="s">of the parts</text>
<rect x="588.0" y="406" width="212" height="50" rx="8" fill="#223046" stroke="#3b4a63" stroke-width="1"/>
<rect x="589.0" y="413" width="3" height="36" rx="1.5" fill="#4f46e5"/>
<rect x="734.0" y="433" width="58" height="17" rx="6" fill="#4f46e5"/>
<text x="763.0" y="445.0" class="bm" fill="#cbd5e1" text-anchor="middle">medium</text>
<text x="602.0" y="429" class="t">Findings</text>
<text x="602.0" y="448" class="s">+ severity</text>
<rect x="588.0" y="468" width="212" height="50" rx="8" fill="#223046" stroke="#3b4a63" stroke-width="1"/>
<rect x="589.0" y="475" width="3" height="36" rx="1.5" fill="#4f46e5"/>
<rect x="734.0" y="495" width="58" height="17" rx="6" fill="#4f46e5"/>
<text x="763.0" y="507.0" class="bm" fill="#cbd5e1" text-anchor="middle">medium</text>
<text x="602.0" y="491" class="t">Routing</text>
<text x="602.0" y="510" class="s">defect→DO · plan→PLAN</text>
<polyline points="694.0,332 694.0,344" fill="none" stroke="#64748b" marker-end="url(#arrow)"/>
<polyline points="694.0,394 694.0,406" fill="none" stroke="#64748b" marker-end="url(#arrow)"/>
<polyline points="694.0,456 694.0,468" fill="none" stroke="#64748b" marker-end="url(#arrow)"/>
<rect x="582.0" y="274" width="224" height="252" rx="12" fill="none" stroke="#d97706" stroke-opacity="0.6" stroke-width="1.6"/>
<rect x="828.0" y="226" width="212" height="40" rx="8" fill="#b91c1c" fill-opacity="0.10" stroke="#b91c1c" stroke-width="1.5" stroke-dasharray="5,4"/><text x="934.0" y="244.0" class="h2" fill="#b91c1c" text-anchor="middle">E · ESCALATE</text><text x="934.0" y="259.0" class="h3" fill="#b91c1c" opacity="0.85" text-anchor="middle">a transition, not a phase</text>
<polyline points="934.0,266 934.0,282" fill="none" stroke="#94a3b8" marker-end="url(#arrow)"/>
<rect x="828.0" y="282" width="212" height="50" rx="8" fill="#223046" stroke="#3b4a63" stroke-width="1"/>
<rect x="829.0" y="289" width="3" height="36" rx="1.5" fill="#0d9488"/>
<rect x="974.0" y="309" width="58" height="17" rx="6" fill="#0d9488"/>
<text x="1003.0" y="321.0" class="bm" fill="#cbd5e1" text-anchor="middle">cheap</text>
<text x="842.0" y="305" class="t">Scout</text>
<text x="842.0" y="324" class="s">scout: facts · file:line</text>
<rect x="828.0" y="344" width="212" height="50" rx="8" fill="#223046" stroke="#3b4a63" stroke-width="1"/>
<rect x="829.0" y="351" width="3" height="36" rx="1.5" fill="#ea580c"/>
<rect x="974.0" y="371" width="58" height="17" rx="6" fill="#ea580c"/>
<text x="1003.0" y="383.0" class="bm" fill="#cbd5e1" text-anchor="middle">strong</text>
<text x="842.0" y="367" class="t">Triggers</text>
<text x="842.0" y="386" class="s">ambiguity · repeat</text>
<rect x="828.0" y="406" width="212" height="50" rx="8" fill="#223046" stroke="#3b4a63" stroke-width="1"/>
<rect x="829.0" y="413" width="3" height="36" rx="1.5" fill="#ea580c"/>
<rect x="974.0" y="433" width="58" height="17" rx="6" fill="#ea580c"/>
<text x="1003.0" y="445.0" class="bm" fill="#cbd5e1" text-anchor="middle">strong</text>
<text x="842.0" y="429" class="t">3rd failure</text>
<text x="842.0" y="448" class="s">CHECK(r) exhausted</text>
<rect x="828.0" y="468" width="212" height="50" rx="8" fill="#223046" stroke="#3b4a63" stroke-width="1"/>
<rect x="829.0" y="475" width="3" height="36" rx="1.5" fill="#ea580c"/>
<rect x="974.0" y="495" width="58" height="17" rx="6" fill="#ea580c"/>
<text x="1003.0" y="507.0" class="bm" fill="#cbd5e1" text-anchor="middle">strong</text>
<text x="842.0" y="491" class="t">Irreversible trade-off</text>
<text x="842.0" y="510" class="s">cost of the call</text>
<rect x="828.0" y="530" width="212" height="50" rx="8" fill="#223046" stroke="#3b4a63" stroke-width="1"/>
<rect x="829.0" y="537" width="3" height="36" rx="1.5" fill="#ea580c"/>
<rect x="974.0" y="557" width="58" height="17" rx="6" fill="#ea580c"/>
<text x="1003.0" y="569.0" class="bm" fill="#cbd5e1" text-anchor="middle">strong</text>
<text x="842.0" y="553" class="t">Decision → routing</text>
<text x="842.0" y="572" class="s">planner or STOP</text>
<polyline points="934.0,332 934.0,344" fill="none" stroke="#64748b" marker-end="url(#arrow)"/>
<polyline points="934.0,394 934.0,406" fill="none" stroke="#64748b" marker-end="url(#arrow)"/>
<polyline points="934.0,456 934.0,468" fill="none" stroke="#64748b" marker-end="url(#arrow)"/>
<polyline points="934.0,518 934.0,530" fill="none" stroke="#64748b" marker-end="url(#arrow)"/>
<rect x="822.0" y="274" width="224" height="314" rx="12" fill="none" stroke="#b91c1c" stroke-opacity="0.6" stroke-width="1.6" stroke-dasharray="5,4"/>
<rect x="1068.0" y="226" width="212" height="40" rx="8" fill="#059669"/><text x="1174.0" y="251.0" class="h" fill="#ffffff" text-anchor="middle">A · ACT</text>
<polyline points="1174.0,266 1174.0,282" fill="none" stroke="#94a3b8" marker-end="url(#arrow)"/>
<rect x="1068.0" y="282" width="212" height="50" rx="8" fill="#223046" stroke="#3b4a63" stroke-width="1"/>
<rect x="1069.0" y="289" width="3" height="36" rx="1.5" fill="#0d9488"/>
<rect x="1214.0" y="309" width="58" height="17" rx="6" fill="#0d9488"/>
<text x="1243.0" y="321.0" class="bm" fill="#cbd5e1" text-anchor="middle">cheap</text>
<text x="1082.0" y="305" class="t">Finalization</text>
<text x="1082.0" y="324" class="s">of the accepted result</text>
<rect x="1068.0" y="344" width="212" height="50" rx="8" fill="#223046" stroke="#3b4a63" stroke-width="1"/>
<rect x="1069.0" y="351" width="3" height="36" rx="1.5" fill="#0d9488"/>
<rect x="1214.0" y="371" width="58" height="17" rx="6" fill="#0d9488"/>
<text x="1243.0" y="383.0" class="bm" fill="#cbd5e1" text-anchor="middle">cheap</text>
<text x="1082.0" y="367" class="t">Limitations</text>
<text x="1082.0" y="386" class="s">finalization bounds</text>
<rect x="1068.0" y="406" width="212" height="50" rx="8" fill="#223046" stroke="#3b4a63" stroke-width="1"/>
<rect x="1069.0" y="413" width="3" height="36" rx="1.5" fill="#0d9488"/>
<rect x="1214.0" y="433" width="58" height="17" rx="6" fill="#0d9488"/>
<text x="1243.0" y="445.0" class="bm" fill="#cbd5e1" text-anchor="middle">cheap</text>
<text x="1082.0" y="429" class="t">Status file</text>
<text x="1082.0" y="448" class="s">source of truth</text>
<rect x="1068.0" y="468" width="212" height="50" rx="8" fill="#223046" stroke="#3b4a63" stroke-width="1"/>
<rect x="1069.0" y="475" width="3" height="36" rx="1.5" fill="#0d9488"/>
<rect x="1214.0" y="495" width="58" height="17" rx="6" fill="#0d9488"/>
<text x="1243.0" y="507.0" class="bm" fill="#cbd5e1" text-anchor="middle">cheap</text>
<text x="1082.0" y="491" class="t">Handoff</text>
<text x="1082.0" y="510" class="s">→ EXIT</text>
<polyline points="1174.0,332 1174.0,344" fill="none" stroke="#64748b" marker-end="url(#arrow)"/>
<polyline points="1174.0,394 1174.0,406" fill="none" stroke="#64748b" marker-end="url(#arrow)"/>
<polyline points="1174.0,456 1174.0,468" fill="none" stroke="#64748b" marker-end="url(#arrow)"/>
<rect x="1062.0" y="274" width="224" height="252" rx="12" fill="none" stroke="#059669" stroke-opacity="0.6" stroke-width="1.6"/>
<polyline points="198.0,182 198.0,226" fill="none" stroke="#94a3b8" data-edge-id="dispatch_p" marker-end="url(#arrow)"/>
<text x="190.0" y="200.5" class="g" fill="#94a3b8" text-anchor="end">facts gathered</text>
<text x="190.0" y="213.5" class="g" fill="#94a3b8" text-anchor="end">replan from CHECK</text>
<polyline points="230.0,226 230.0,182" fill="none" stroke="#94a3b8" data-edge-id="return_p" marker-end="url(#arrow)"/>
<polyline points="438.0,182 438.0,226" fill="none" stroke="#94a3b8" data-edge-id="dispatch_d" marker-end="url(#arrow)"/>
<text x="430.0" y="200.5" class="g" fill="#94a3b8" text-anchor="end">plan accepted · go</text>
<text x="430.0" y="213.5" class="g" fill="#94a3b8" text-anchor="end">defect fix · r active</text>
<polyline points="470.0,226 470.0,182" fill="none" stroke="#94a3b8" data-edge-id="return_d" marker-end="url(#arrow)"/>
<polyline points="678.0,182 678.0,226" fill="none" stroke="#94a3b8" data-edge-id="dispatch_c" marker-end="url(#arrow)"/>
<text x="670.0" y="207.0" class="g" fill="#94a3b8" text-anchor="end">all active units done</text>
<polyline points="710.0,226 710.0,182" fill="none" stroke="#94a3b8" data-edge-id="return_c" marker-end="url(#arrow)"/>
<polyline points="918.0,182 918.0,226" fill="none" stroke="#94a3b8" data-edge-id="dispatch_e" marker-end="url(#arrow)"/>
<text x="910.0" y="200.5" class="g" fill="#94a3b8" text-anchor="end">ambiguity</text>
<text x="910.0" y="213.5" class="g" fill="#94a3b8" text-anchor="end">repeat · 3rd failure</text>
<polyline points="950.0,226 950.0,182" fill="none" stroke="#94a3b8" data-edge-id="return_e" marker-end="url(#arrow)"/>
<polyline points="1158.0,182 1158.0,226" fill="none" stroke="#94a3b8" data-edge-id="dispatch_a" marker-end="url(#arrow)"/>
<text x="1150.0" y="207.0" class="g" fill="#94a3b8" text-anchor="end">all criteria met</text>
<polyline points="1190.0,226 1190.0,182" fill="none" stroke="#94a3b8" data-edge-id="return_a" marker-end="url(#arrow)"/>
<rect x="24.0" y="774" width="15" height="15" rx="4" fill="#0d9488"/>
<text x="46.0" y="786" class="lt">cheap tier</text>
<rect x="46.0" y="794" width="53.0" height="21" rx="7" fill="#0d9488"/>
<text x="72.5" y="809" class="lm" fill="#ffffff" text-anchor="middle">cheap</text>
<text x="109.0" y="809" class="ls">pdca-executor · pdca-orchestrator · scout</text>
<rect x="470.6666666666667" y="774" width="15" height="15" rx="4" fill="#4f46e5"/>
<text x="492.6666666666667" y="786" class="lt">medium tier</text>
<rect x="492.6666666666667" y="794" width="60.400000000000006" height="21" rx="7" fill="#4f46e5"/>
<text x="522.8666666666667" y="809" class="lm" fill="#ffffff" text-anchor="middle">medium</text>
<text x="563.0666666666667" y="809" class="ls">pdca-planner · pdca-check</text>
<rect x="917.3333333333334" y="774" width="15" height="15" rx="4" fill="#ea580c"/>
<text x="939.3333333333334" y="786" class="lt">strong tier</text>
<rect x="939.3333333333334" y="794" width="60.400000000000006" height="21" rx="7" fill="#ea580c"/>
<text x="969.5333333333334" y="809" class="lm" fill="#ffffff" text-anchor="middle">strong</text>
<text x="1009.7333333333333" y="809" class="ls">pdca-escalate</text>
<text x="24" y="842" class="lt">The cycle state graph</text>
<rect x="24" y="992" width="156" height="56" rx="10" fill="#94a3b8" fill-opacity="0.10" stroke="#94a3b8" stroke-width="1.8" data-node-id="START"/>
<text x="102.0" y="1019.0" class="st" fill="#94a3b8" text-anchor="middle">START</text>
<text x="102.0" y="1036.0" class="ss" fill="#94a3b8" text-anchor="middle" opacity="0.8">start</text>
<rect x="256" y="992" width="156" height="56" rx="10" fill="#60a5fa" fill-opacity="0.10" stroke="#60a5fa" stroke-width="1.8" data-node-id="PLAN"/>
<text x="334.0" y="1019.0" class="st" fill="#60a5fa" text-anchor="middle">P · PLAN</text>
<text x="334.0" y="1036.0" class="ss" fill="#60a5fa" text-anchor="middle" opacity="0.8">plan</text>
<rect x="488" y="992" width="156" height="56" rx="10" fill="#a78bfa" fill-opacity="0.10" stroke="#a78bfa" stroke-width="1.8" data-node-id="DO"/>
<text x="566.0" y="1019.0" class="st" fill="#a78bfa" text-anchor="middle">D · DO</text>
<text x="566.0" y="1036.0" class="ss" fill="#a78bfa" text-anchor="middle" opacity="0.8">execute</text>
<rect x="720" y="992" width="156" height="56" rx="10" fill="#fbbf24" fill-opacity="0.10" stroke="#fbbf24" stroke-width="1.8" data-node-id="CHECK"/>
<text x="798.0" y="1019.0" class="st" fill="#fbbf24" text-anchor="middle">C · CHECK</text>
<text x="798.0" y="1036.0" class="ss" fill="#fbbf24" text-anchor="middle" opacity="0.8">verify</text>
<rect x="952" y="992" width="156" height="56" rx="10" fill="#34d399" fill-opacity="0.10" stroke="#34d399" stroke-width="1.8" data-node-id="ACT"/>
<text x="1030.0" y="1019.0" class="st" fill="#34d399" text-anchor="middle">A · ACT</text>
<text x="1030.0" y="1036.0" class="ss" fill="#34d399" text-anchor="middle" opacity="0.8">finalize</text>
<rect x="1184" y="992" width="156" height="56" rx="10" fill="#94a3b8" fill-opacity="0.10" stroke="#94a3b8" stroke-width="1.8" data-node-id="EXIT"/>
<text x="1262.0" y="1019.0" class="st" fill="#94a3b8" text-anchor="middle">EXIT</text>
<text x="1262.0" y="1036.0" class="ss" fill="#94a3b8" text-anchor="middle" opacity="0.8">exit</text>
<polyline points="180,1020.0 256,1020.0" fill="none" stroke="#94a3b8" data-edge-id="start_plan" marker-end="url(#arrow)"/>
<text x="218.0" y="1013.0" class="g" fill="#cbd5e1" text-anchor="middle">start</text>
<polyline points="412,1020.0 488,1020.0" fill="none" stroke="#94a3b8" data-edge-id="plan_do" marker-end="url(#arrow)"/>
<text x="450.0" y="987.0" class="g" fill="#cbd5e1" text-anchor="middle">go (normal)</text>
<text x="450.0" y="1000.0" class="g" fill="#cbd5e1" text-anchor="middle">instant (auto)</text>
<text x="450.0" y="1013.0" class="g" fill="#cbd5e1" text-anchor="middle">· n=1/3</text>
<polyline points="644,1020.0 720,1020.0" fill="none" stroke="#94a3b8" data-edge-id="do_check" marker-end="url(#arrow)"/>
<text x="682.0" y="1013.0" class="g" fill="#cbd5e1" text-anchor="middle">units done</text>
<polyline points="876,1020.0 952,1020.0" fill="none" stroke="#94a3b8" data-edge-id="check_act" marker-end="url(#arrow)"/>
<text x="914.0" y="1013.0" class="g" fill="#cbd5e1" text-anchor="middle">criteria met</text>
<polyline points="1108,1020.0 1184,1020.0" fill="none" stroke="#94a3b8" data-edge-id="act_exit" marker-end="url(#arrow)"/>
<text x="1146.0" y="1013.0" class="g" fill="#cbd5e1" text-anchor="middle">closed</text>
<path d="M988,992 C988,952 376,952 376,992" fill="none" stroke="#34d399" stroke-dasharray="5,4" data-edge-id="act_plan" marker-end="url(#arrow)"/>
<text x="682" y="948" class="g" fill="#cbd5e1" text-anchor="middle">next cycle · N+1</text>
<path d="M566,992 C566,920 334,920 334,992" fill="none" stroke="#94a3b8" data-edge-id="do_plan_blocker" marker-end="url(#arrow)"/>
<text x="450" y="916" class="g" fill="#cbd5e1" text-anchor="middle">new precondition</text>
<path d="M798,992 C798,888 566,888 566,992" fill="none" stroke="#94a3b8" data-edge-id="check_do_defect" marker-end="url(#arrow)"/>
<text x="682" y="884" class="g" fill="#cbd5e1" text-anchor="middle">defect · n+1 (n/3)</text>
<path d="M798,992 C798,856 334,856 334,992" fill="none" stroke="#94a3b8" data-edge-id="check_plan_replan" marker-end="url(#arrow)"/>
<text x="566" y="852" class="g" fill="#cbd5e1" text-anchor="middle">wrong plan → planner · r+1 on revision</text>
<rect x="488" y="1172" width="156" height="56" rx="10" fill="#f87171" fill-opacity="0.10" stroke="#f87171" stroke-width="1.8" data-node-id="ESCALATE"/>
<text x="566.0" y="1199.0" class="st" fill="#f87171" text-anchor="middle">ESCALATION</text>
<text x="566.0" y="1216.0" class="ss" fill="#f87171" text-anchor="middle" opacity="0.8">decision</text>
<rect x="1184" y="1172" width="156" height="56" rx="10" fill="#dc2626" fill-opacity="0.10" stroke="#dc2626" stroke-width="1.8" data-node-id="STOP"/>
<text x="1262.0" y="1199.0" class="st" fill="#dc2626" text-anchor="middle">STOP</text>
<text x="1262.0" y="1216.0" class="ss" fill="#dc2626" text-anchor="middle" opacity="0.8">terminal</text>
<path d="M798,1048 C798,1128 566,1092 566,1172" fill="none" stroke="#f87171" data-edge-id="check_escalate" marker-end="url(#arrow)"/>
<text x="700" y="1110.0" class="g" fill="#cbd5e1" text-anchor="middle">repeat · 3rd failure</text>
<polyline points="516,1172 516,1048" fill="none" stroke="#f87171" data-edge-id="escalate_do" marker-end="url(#arrow)"/>
<text x="504" y="1110.0" class="g" fill="#cbd5e1" text-anchor="end">r not exhausted → DO</text>
<polyline points="488,1200.0 334,1200.0 334,1048" fill="none" stroke="#f87171" data-edge-id="escalate_plan" marker-end="url(#arrow)"/>
<text x="411" y="1190.0" class="g" fill="#cbd5e1" text-anchor="middle">r exhausted → PLAN r+1</text>
<polyline points="644,1200.0 1184,1200.0" fill="none" stroke="#f87171" data-edge-id="escalate_stop" marker-end="url(#arrow)"/>
<text x="914" y="1190.0" class="g" fill="#cbd5e1" text-anchor="middle">STOP: no plan r+1</text>
<text x="24" y="1290" class="g" fill="#94a3b8" text-anchor="start">solid arrow — a transition</text>
<text x="320" y="1290" class="g" fill="#94a3b8" text-anchor="start">arc — loop-back before ACT</text>
<text x="600" y="1290" class="g" fill="#94a3b8" text-anchor="start">dashed — next cycle</text>
<text x="860" y="1290" class="g" fill="#94a3b8" text-anchor="start">bottom row — escalation and STOP</text>
</svg>